<svg width="182" height="57" viewBox="0 0 182 57" fill="none" xmlns="http://www.w3.org/2000/svg">
<g opacity="0.8">
<path d="M31.7077 18.5511C31.7219 16.0653 33.1992 14.5881 35.4009 14.5881C37.631 14.5881 38.9236 16.0227 38.9094 18.4517V30.9943H45.8555V17.0881C45.8697 12.1449 42.8583 8.89205 38.2702 8.89205C35.0032 8.89205 32.702 10.4972 31.7219 13.1818H31.4805V1.90341H24.7617V30.9943H31.7077V18.5511Z" fill="white"/>
<path d="M50.1914 30.9943H57.1374V9.17614H50.1914V30.9943ZM53.6715 6.63352C55.6459 6.63352 57.2368 5.14205 57.2368 3.30966C57.2368 1.47727 55.6459 0 53.6715 0C51.7113 0 50.1062 1.47727 50.1062 3.30966C50.1062 5.14205 51.7113 6.63352 53.6715 6.63352Z" fill="white"/>
<path d="M80.6069 15.8381C80.2376 11.5199 76.7006 8.89205 70.7915 8.89205C64.8824 8.89205 61.1182 11.4631 61.1466 15.8381C61.1182 19.1903 63.2631 21.3494 67.6239 22.1591L71.4307 22.8835C73.2347 23.2386 74.0586 23.8068 74.087 24.7727C74.0586 25.8665 72.837 26.5909 71.0614 26.5909C69.087 26.5909 67.7518 25.7386 67.4535 24.1477L60.5927 24.3182C61.0898 28.6364 64.7972 31.4063 71.033 31.4063C76.8711 31.4063 81.1182 28.4943 81.1466 24.0057C81.1182 20.8239 79.016 18.9347 74.6694 18.0966L70.4648 17.3011C68.6182 16.9318 68.0216 16.2784 68.0359 15.4403C68.0216 14.3324 69.3143 13.6506 70.9194 13.6506C72.7518 13.6506 74.0302 14.6307 74.229 16.0085L80.6069 15.8381Z" fill="white"/>
<path d="M96.8817 9.17614H92.9471V3.94886H86.0011V9.17614H83.1175V14.2898H86.0011V24.9006C85.9584 29.3182 88.8278 31.5341 93.7283 31.3068C95.4045 31.2216 96.6119 30.8807 97.2795 30.6818L96.2283 25.6676C95.93 25.7386 95.234 25.8807 94.7084 25.8807C93.5863 25.8807 92.9471 25.4261 92.9471 24.1335V14.2898H96.8817V9.17614Z" fill="white"/>
<path d="M110.376 31.4063C117.237 31.4063 121.399 26.875 121.399 20.1563C121.399 13.4233 117.237 8.89205 110.376 8.89205C103.515 8.89205 99.3533 13.4233 99.3533 20.1563C99.3533 26.875 103.515 31.4063 110.376 31.4063ZM110.419 26.1648C107.848 26.1648 106.427 23.7216 106.427 20.1136C106.427 16.4915 107.848 14.0341 110.419 14.0341C112.904 14.0341 114.325 16.4915 114.325 20.1136C114.325 23.7216 112.904 26.1648 110.419 26.1648ZM107.975 6.40625H112.706L116.995 0H110.845L107.975 6.40625Z" fill="white"/>
<path d="M124.957 30.9943H131.903V19.1477C131.903 16.5483 133.75 14.8011 136.235 14.8011C137.059 14.8011 138.295 14.9432 138.963 15.1705V9.13352C138.38 8.97727 137.656 8.87784 137.017 8.87784C134.63 8.87784 132.727 10.2699 131.931 13.1534H131.704V9.17614H124.957V30.9943Z" fill="white"/>
<path d="M141.793 30.9943H148.739V9.17614H141.793V30.9943ZM145.273 6.63352C147.247 6.63352 148.838 5.14205 148.838 3.30966C148.838 1.47727 147.247 0 145.273 0C143.313 0 141.708 1.47727 141.708 3.30966C141.708 5.14205 143.313 6.63352 145.273 6.63352Z" fill="white"/>
<path d="M159.311 31.3636C162.35 31.3636 164.453 30.1847 165.646 27.9545H165.816V30.9943H172.35V16.1648C172.35 11.5483 168.245 8.89205 162.691 8.89205C156.825 8.89205 153.501 11.8466 152.947 15.8239L159.353 16.0511C159.652 14.6591 160.802 13.8068 162.635 13.8068C164.339 13.8068 165.419 14.6307 165.419 16.0938V16.1648C165.419 17.5 163.97 17.7841 160.248 18.1108C155.831 18.4801 152.137 20.1136 152.137 24.9432C152.137 29.2614 155.135 31.3636 159.311 31.3636ZM161.456 26.8182C159.85 26.8182 158.714 26.0511 158.714 24.6023C158.714 23.196 159.822 22.3438 161.797 22.0455C163.089 21.8608 164.68 21.5767 165.461 21.1648V23.2386C165.461 25.3693 163.672 26.8182 161.456 26.8182Z" fill="white"/>
<path d="M32.946 50.6843C32.946 50.9963 32.928 51.3263 32.892 51.6743H25.008C25.068 52.6463 25.398 53.4083 25.998 53.9603C26.61 54.5003 27.348 54.7703 28.212 54.7703C28.92 54.7703 29.508 54.6083 29.976 54.2843C30.456 53.9483 30.792 53.5043 30.984 52.9523H32.748C32.484 53.9003 31.956 54.6743 31.164 55.2743C30.372 55.8623 29.388 56.1563 28.212 56.1563C27.276 56.1563 26.436 55.9463 25.692 55.5263C24.96 55.1063 24.384 54.5123 23.964 53.7443C23.544 52.9643 23.334 52.0643 23.334 51.0443C23.334 50.0243 23.538 49.1303 23.946 48.3623C24.354 47.5943 24.924 47.0063 25.656 46.5983C26.4 46.1783 27.252 45.9683 28.212 45.9683C29.148 45.9683 29.976 46.1723 30.696 46.5803C31.416 46.9883 31.968 47.5523 32.352 48.2723C32.748 48.9803 32.946 49.7843 32.946 50.6843ZM31.254 50.3423C31.254 49.7183 31.116 49.1843 30.84 48.7403C30.564 48.2843 30.186 47.9423 29.706 47.7143C29.238 47.4743 28.716 47.3543 28.14 47.3543C27.312 47.3543 26.604 47.6183 26.016 48.1463C25.44 48.6743 25.11 49.4063 25.026 50.3423H31.254Z" fill="white"/>
<path d="M38.6001 56.1563C37.8441 56.1563 37.1661 56.0303 36.5661 55.7783C35.9661 55.5143 35.4921 55.1543 35.1441 54.6983C34.7961 54.2303 34.6041 53.6963 34.5681 53.0963H36.2601C36.3081 53.5883 36.5361 53.9903 36.9441 54.3023C37.3641 54.6143 37.9101 54.7703 38.5821 54.7703C39.2061 54.7703 39.6981 54.6323 40.0581 54.3563C40.4181 54.0803 40.5981 53.7323 40.5981 53.3123C40.5981 52.8803 40.4061 52.5623 40.0221 52.3583C39.6381 52.1423 39.0441 51.9323 38.2401 51.7283C37.5081 51.5363 36.9081 51.3443 36.4401 51.1523C35.9841 50.9483 35.5881 50.6543 35.2521 50.2703C34.9281 49.8743 34.7661 49.3583 34.7661 48.7223C34.7661 48.2183 34.9161 47.7563 35.2161 47.3363C35.5161 46.9163 35.9421 46.5863 36.4941 46.3463C37.0461 46.0943 37.6761 45.9683 38.3841 45.9683C39.4761 45.9683 40.3581 46.2443 41.0301 46.7963C41.7021 47.3483 42.0621 48.1043 42.1101 49.0643H40.4721C40.4361 48.5483 40.2261 48.1343 39.8421 47.8223C39.4701 47.5103 38.9661 47.3543 38.3301 47.3543C37.7421 47.3543 37.2741 47.4803 36.9261 47.7323C36.5781 47.9843 36.4041 48.3143 36.4041 48.7223C36.4041 49.0463 36.5061 49.3163 36.7101 49.5323C36.9261 49.7363 37.1901 49.9043 37.5021 50.0363C37.8261 50.1563 38.2701 50.2943 38.8341 50.4503C39.5421 50.6423 40.1181 50.8343 40.5621 51.0263C41.0061 51.2063 41.3841 51.4823 41.6961 51.8543C42.0201 52.2263 42.1881 52.7123 42.2001 53.3123C42.2001 53.8523 42.0501 54.3383 41.7501 54.7703C41.4501 55.2023 41.0241 55.5443 40.4721 55.7963C39.9321 56.0363 39.3081 56.1563 38.6001 56.1563Z" fill="white"/>
<path d="M46.5104 47.4803V53.2943C46.5104 53.7743 46.6124 54.1163 46.8164 54.3203C47.0204 54.5123 47.3744 54.6083 47.8784 54.6083H49.0844V55.9943H47.6084C46.6964 55.9943 46.0124 55.7843 45.5564 55.3643C45.1004 54.9443 44.8724 54.2543 44.8724 53.2943V47.4803H43.5944V46.1303H44.8724V43.6463H46.5104V46.1303H49.0844V47.4803H46.5104Z" fill="white"/>
<path d="M50.457 51.0263C50.457 50.0183 50.661 49.1363 51.069 48.3803C51.477 47.6123 52.035 47.0183 52.743 46.5983C53.463 46.1783 54.261 45.9683 55.137 45.9683C56.001 45.9683 56.751 46.1543 57.387 46.5263C58.023 46.8983 58.497 47.3663 58.809 47.9303V46.1303H60.465V55.9943H58.809V54.1583C58.485 54.7343 57.999 55.2143 57.351 55.5983C56.715 55.9703 55.971 56.1563 55.119 56.1563C54.243 56.1563 53.451 55.9403 52.743 55.5083C52.035 55.0763 51.477 54.4703 51.069 53.6903C50.661 52.9103 50.457 52.0223 50.457 51.0263ZM58.809 51.0443C58.809 50.3003 58.659 49.6523 58.359 49.1003C58.059 48.5483 57.651 48.1283 57.135 47.8403C56.631 47.5403 56.073 47.3903 55.461 47.3903C54.849 47.3903 54.291 47.5343 53.787 47.8223C53.283 48.1103 52.881 48.5303 52.581 49.0823C52.281 49.6343 52.131 50.2823 52.131 51.0263C52.131 51.7823 52.281 52.4423 52.581 53.0063C52.881 53.5583 53.283 53.9843 53.787 54.2843C54.291 54.5723 54.849 54.7163 55.461 54.7163C56.073 54.7163 56.631 54.5723 57.135 54.2843C57.651 53.9843 58.059 53.5583 58.359 53.0063C58.659 52.4423 58.809 51.7883 58.809 51.0443ZM57.531 43.3403L53.697 45.3923V44.1683L57.531 41.9183V43.3403Z" fill="white"/>
<path d="M72.8379 45.9503C74.0379 45.9503 75.0099 46.3163 75.7539 47.0483C76.4979 47.7683 76.8699 48.8123 76.8699 50.1803V55.9943H75.2499V50.4143C75.2499 49.4303 75.0039 48.6803 74.5119 48.1643C74.0199 47.6363 73.3479 47.3723 72.4959 47.3723C71.6319 47.3723 70.9419 47.6423 70.4259 48.1823C69.9219 48.7223 69.6699 49.5083 69.6699 50.5403V55.9943H68.0319V46.1303H69.6699V47.5343C69.9939 47.0303 70.4319 46.6403 70.9839 46.3643C71.5479 46.0883 72.1659 45.9503 72.8379 45.9503Z" fill="white"/>
<path d="M83.8476 56.1563C82.9236 56.1563 82.0836 55.9463 81.3276 55.5263C80.5836 55.1063 79.9956 54.5123 79.5636 53.7443C79.1436 52.9643 78.9336 52.0643 78.9336 51.0443C78.9336 50.0363 79.1496 49.1483 79.5816 48.3803C80.0256 47.6003 80.6256 47.0063 81.3816 46.5983C82.1376 46.1783 82.9836 45.9683 83.9196 45.9683C84.8556 45.9683 85.7016 46.1783 86.4576 46.5983C87.2136 47.0063 87.8076 47.5943 88.2396 48.3623C88.6836 49.1303 88.9056 50.0243 88.9056 51.0443C88.9056 52.0643 88.6776 52.9643 88.2216 53.7443C87.7776 54.5123 87.1716 55.1063 86.4036 55.5263C85.6356 55.9463 84.7836 56.1563 83.8476 56.1563ZM83.8476 54.7163C84.4356 54.7163 84.9876 54.5783 85.5036 54.3023C86.0196 54.0263 86.4336 53.6123 86.7456 53.0603C87.0696 52.5083 87.2316 51.8363 87.2316 51.0443C87.2316 50.2523 87.0756 49.5803 86.7636 49.0283C86.4516 48.4763 86.0436 48.0683 85.5396 47.8043C85.0356 47.5283 84.4896 47.3903 83.9016 47.3903C83.3016 47.3903 82.7496 47.5283 82.2456 47.8043C81.7536 48.0683 81.3576 48.4763 81.0576 49.0283C80.7576 49.5803 80.6076 50.2523 80.6076 51.0443C80.6076 51.8483 80.7516 52.5263 81.0396 53.0783C81.3396 53.6303 81.7356 54.0443 82.2276 54.3203C82.7196 54.5843 83.2596 54.7163 83.8476 54.7163Z" fill="white"/>
<path d="M94.5513 56.1563C93.7953 56.1563 93.1173 56.0303 92.5173 55.7783C91.9173 55.5143 91.4433 55.1543 91.0953 54.6983C90.7473 54.2303 90.5553 53.6963 90.5193 53.0963H92.2113C92.2593 53.5883 92.4873 53.9903 92.8953 54.3023C93.3153 54.6143 93.8613 54.7703 94.5333 54.7703C95.1573 54.7703 95.6493 54.6323 96.0093 54.3563C96.3693 54.0803 96.5493 53.7323 96.5493 53.3123C96.5493 52.8803 96.3573 52.5623 95.9733 52.3583C95.5893 52.1423 94.9953 51.9323 94.1913 51.7283C93.4593 51.5363 92.8593 51.3443 92.3913 51.1523C91.9353 50.9483 91.5393 50.6543 91.2033 50.2703C90.8793 49.8743 90.7173 49.3583 90.7173 48.7223C90.7173 48.2183 90.8673 47.7563 91.1673 47.3363C91.4673 46.9163 91.8933 46.5863 92.4453 46.3463C92.9973 46.0943 93.6273 45.9683 94.3353 45.9683C95.4273 45.9683 96.3093 46.2443 96.9813 46.7963C97.6533 47.3483 98.0133 48.1043 98.0613 49.0643H96.4233C96.3873 48.5483 96.1773 48.1343 95.7933 47.8223C95.4213 47.5103 94.9173 47.3543 94.2813 47.3543C93.6933 47.3543 93.2253 47.4803 92.8773 47.7323C92.5293 47.9843 92.3553 48.3143 92.3553 48.7223C92.3553 49.0463 92.4573 49.3163 92.6613 49.5323C92.8773 49.7363 93.1413 49.9043 93.4533 50.0363C93.7773 50.1563 94.2213 50.2943 94.7853 50.4503C95.4933 50.6423 96.0693 50.8343 96.5133 51.0263C96.9573 51.2063 97.3353 51.4823 97.6473 51.8543C97.9713 52.2263 98.1393 52.7123 98.1513 53.3123C98.1513 53.8523 98.0013 54.3383 97.7013 54.7703C97.4013 55.2023 96.9753 55.5443 96.4233 55.7963C95.8833 56.0363 95.2593 56.1563 94.5513 56.1563Z" fill="white"/>
<path d="M104.65 51.0263C104.65 50.0183 104.854 49.1363 105.262 48.3803C105.67 47.6123 106.228 47.0183 106.936 46.5983C107.656 46.1783 108.46 45.9683 109.348 45.9683C110.116 45.9683 110.83 46.1483 111.49 46.5083C112.15 46.8563 112.654 47.3183 113.002 47.8943V42.6743H114.658V55.9943H113.002V54.1403C112.678 54.7283 112.198 55.2143 111.562 55.5983C110.926 55.9703 110.182 56.1563 109.33 56.1563C108.454 56.1563 107.656 55.9403 106.936 55.5083C106.228 55.0763 105.67 54.4703 105.262 53.6903C104.854 52.9103 104.65 52.0223 104.65 51.0263ZM113.002 51.0443C113.002 50.3003 112.852 49.6523 112.552 49.1003C112.252 48.5483 111.844 48.1283 111.328 47.8403C110.824 47.5403 110.266 47.3903 109.654 47.3903C109.042 47.3903 108.484 47.5343 107.98 47.8223C107.476 48.1103 107.074 48.5303 106.774 49.0823C106.474 49.6343 106.324 50.2823 106.324 51.0263C106.324 51.7823 106.474 52.4423 106.774 53.0063C107.074 53.5583 107.476 53.9843 107.98 54.2843C108.484 54.5723 109.042 54.7163 109.654 54.7163C110.266 54.7163 110.824 54.5723 111.328 54.2843C111.844 53.9843 112.252 53.5583 112.552 53.0063C112.852 52.4423 113.002 51.7883 113.002 51.0443Z" fill="white"/>
<path d="M126.426 50.6843C126.426 50.9963 126.408 51.3263 126.372 51.6743H118.488C118.548 52.6463 118.878 53.4083 119.478 53.9603C120.09 54.5003 120.828 54.7703 121.692 54.7703C122.4 54.7703 122.988 54.6083 123.456 54.2843C123.936 53.9483 124.272 53.5043 124.464 52.9523H126.228C125.964 53.9003 125.436 54.6743 124.644 55.2743C123.852 55.8623 122.868 56.1563 121.692 56.1563C120.756 56.1563 119.916 55.9463 119.172 55.5263C118.44 55.1063 117.864 54.5123 117.444 53.7443C117.024 52.9643 116.814 52.0643 116.814 51.0443C116.814 50.0243 117.018 49.1303 117.426 48.3623C117.834 47.5943 118.404 47.0063 119.136 46.5983C119.88 46.1783 120.732 45.9683 121.692 45.9683C122.628 45.9683 123.456 46.1723 124.176 46.5803C124.896 46.9883 125.448 47.5523 125.832 48.2723C126.228 48.9803 126.426 49.7843 126.426 50.6843ZM124.734 50.3423C124.734 49.7183 124.596 49.1843 124.32 48.7403C124.044 48.2843 123.666 47.9423 123.186 47.7143C122.718 47.4743 122.196 47.3543 121.62 47.3543C120.792 47.3543 120.084 47.6183 119.496 48.1463C118.92 48.6743 118.59 49.4063 118.506 50.3423H124.734Z" fill="white"/>
<path d="M130.587 47.4803V53.2943C130.587 53.7743 130.689 54.1163 130.893 54.3203C131.097 54.5123 131.451 54.6083 131.955 54.6083H133.161V55.9943H131.685C130.773 55.9943 130.089 55.7843 129.633 55.3643C129.177 54.9443 128.949 54.2543 128.949 53.2943V47.4803H127.671V46.1303H128.949V43.6463H130.587V46.1303H133.161V47.4803H130.587Z" fill="white"/>
<path d="M134.533 51.0263C134.533 50.0183 134.737 49.1363 135.145 48.3803C135.553 47.6123 136.111 47.0183 136.819 46.5983C137.539 46.1783 138.337 45.9683 139.213 45.9683C140.077 45.9683 140.827 46.1543 141.463 46.5263C142.099 46.8983 142.573 47.3663 142.885 47.9303V46.1303H144.541V55.9943H142.885V54.1583C142.561 54.7343 142.075 55.2143 141.427 55.5983C140.791 55.9703 140.047 56.1563 139.195 56.1563C138.319 56.1563 137.527 55.9403 136.819 55.5083C136.111 55.0763 135.553 54.4703 135.145 53.6903C134.737 52.9103 134.533 52.0223 134.533 51.0263ZM142.885 51.0443C142.885 50.3003 142.735 49.6523 142.435 49.1003C142.135 48.5483 141.727 48.1283 141.211 47.8403C140.707 47.5403 140.149 47.3903 139.537 47.3903C138.925 47.3903 138.367 47.5343 137.863 47.8223C137.359 48.1103 136.957 48.5303 136.657 49.0823C136.357 49.6343 136.207 50.2823 136.207 51.0263C136.207 51.7823 136.357 52.4423 136.657 53.0063C136.957 53.5583 137.359 53.9843 137.863 54.2843C138.367 54.5723 138.925 54.7163 139.537 54.7163C140.149 54.7163 140.707 54.5723 141.211 54.2843C141.727 53.9843 142.135 53.5583 142.435 53.0063C142.735 52.4423 142.885 51.7883 142.885 51.0443Z" fill="white"/>
<path d="M148.947 42.6743V55.9943H147.309V42.6743H148.947Z" fill="white"/>
<path d="M156.635 45.9503C157.379 45.9503 158.051 46.1123 158.651 46.4363C159.251 46.7483 159.719 47.2223 160.055 47.8583C160.403 48.4943 160.577 49.2683 160.577 50.1803V55.9943H158.957V50.4143C158.957 49.4303 158.711 48.6803 158.219 48.1643C157.727 47.6363 157.055 47.3723 156.203 47.3723C155.339 47.3723 154.649 47.6423 154.133 48.1823C153.629 48.7223 153.377 49.5083 153.377 50.5403V55.9943H151.739V42.6743H153.377V47.5343C153.701 47.0303 154.145 46.6403 154.709 46.3643C155.285 46.0883 155.927 45.9503 156.635 45.9503Z" fill="white"/>
<path d="M172.253 50.6843C172.253 50.9963 172.235 51.3263 172.199 51.6743H164.315C164.375 52.6463 164.705 53.4083 165.305 53.9603C165.917 54.5003 166.655 54.7703 167.519 54.7703C168.227 54.7703 168.815 54.6083 169.283 54.2843C169.763 53.9483 170.099 53.5043 170.291 52.9523H172.055C171.791 53.9003 171.263 54.6743 170.471 55.2743C169.679 55.8623 168.695 56.1563 167.519 56.1563C166.583 56.1563 165.743 55.9463 164.999 55.5263C164.267 55.1063 163.691 54.5123 163.271 53.7443C162.851 52.9643 162.641 52.0643 162.641 51.0443C162.641 50.0243 162.845 49.1303 163.253 48.3623C163.661 47.5943 164.231 47.0063 164.963 46.5983C165.707 46.1783 166.559 45.9683 167.519 45.9683C168.455 45.9683 169.283 46.1723 170.003 46.5803C170.723 46.9883 171.275 47.5523 171.659 48.2723C172.055 48.9803 172.253 49.7843 172.253 50.6843ZM170.561 50.3423C170.561 49.7183 170.423 49.1843 170.147 48.7403C169.871 48.2843 169.493 47.9423 169.013 47.7143C168.545 47.4743 168.023 47.3543 167.447 47.3543C166.619 47.3543 165.911 47.6183 165.323 48.1463C164.747 48.6743 164.417 49.4063 164.333 50.3423H170.561Z" fill="white"/>
<path d="M177.907 56.1563C177.151 56.1563 176.473 56.0303 175.873 55.7783C175.273 55.5143 174.799 55.1543 174.451 54.6983C174.103 54.2303 173.911 53.6963 173.875 53.0963H175.567C175.615 53.5883 175.843 53.9903 176.251 54.3023C176.671 54.6143 177.217 54.7703 177.889 54.7703C178.513 54.7703 179.005 54.6323 179.365 54.3563C179.725 54.0803 179.905 53.7323 179.905 53.3123C179.905 52.8803 179.713 52.5623 179.329 52.3583C178.945 52.1423 178.351 51.9323 177.547 51.7283C176.815 51.5363 176.215 51.3443 175.747 51.1523C175.291 50.9483 174.895 50.6543 174.559 50.2703C174.235 49.8743 174.073 49.3583 174.073 48.7223C174.073 48.2183 174.223 47.7563 174.523 47.3363C174.823 46.9163 175.249 46.5863 175.801 46.3463C176.353 46.0943 176.983 45.9683 177.691 45.9683C178.783 45.9683 179.665 46.2443 180.337 46.7963C181.009 47.3483 181.369 48.1043 181.417 49.0643H179.779C179.743 48.5483 179.533 48.1343 179.149 47.8223C178.777 47.5103 178.273 47.3543 177.637 47.3543C177.049 47.3543 176.581 47.4803 176.233 47.7323C175.885 47.9843 175.711 48.3143 175.711 48.7223C175.711 49.0463 175.813 49.3163 176.017 49.5323C176.233 49.7363 176.497 49.9043 176.809 50.0363C177.133 50.1563 177.577 50.2943 178.141 50.4503C178.849 50.6423 179.425 50.8343 179.869 51.0263C180.313 51.2063 180.691 51.4823 181.003 51.8543C181.327 52.2263 181.495 52.7123 181.507 53.3123C181.507 53.8523 181.357 54.3383 181.057 54.7703C180.757 55.2023 180.331 55.5443 179.779 55.7963C179.239 56.0363 178.615 56.1563 177.907 56.1563Z" fill="white"/>
<path d="M18.464 5.29032L15.136 21.9943H13.6L14.24 18.7303C13.4293 19.797 12.416 20.629 11.2 21.2263C10.0053 21.8237 8.672 22.1223 7.2 22.1223C5.024 22.1223 3.27467 21.5037 1.952 20.2663C0.650667 19.0077 0 17.3117 0 15.1783C0 13.2797 0.405333 11.573 1.216 10.0583C2.02667 8.52232 3.14667 7.32765 4.576 6.47432C6.02667 5.59965 7.648 5.16232 9.44 5.16232C11.168 5.16232 12.5973 5.53565 13.728 6.28232C14.8587 7.02899 15.6267 8.08499 16.032 9.45032L16.864 5.29032H18.464ZM7.52 20.6823C9.01333 20.6823 10.3467 20.3197 11.52 19.5943C12.7147 18.869 13.6533 17.8663 14.336 16.5863C15.0187 15.285 15.36 13.8237 15.36 12.2023C15.36 10.4317 14.8373 9.05565 13.792 8.07432C12.768 7.09299 11.3173 6.60232 9.44 6.60232C7.94667 6.60232 6.60267 6.97565 5.408 7.72232C4.23467 8.44765 3.30667 9.46099 2.624 10.7623C1.94133 12.0423 1.6 13.4823 1.6 15.0823C1.6 16.853 2.112 18.229 3.136 19.2103C4.18133 20.1917 5.64267 20.6823 7.52 20.6823Z" fill="white"/>
</g>
</svg>
